<svg aria-hidden="true" style="position:absolute;width:0;height:0" xmlns="http://www.w3.org/2000/svg" overflow="hidden"><defs>
<symbol id="chat-3" viewBox="0 0 32 32">
<path d="M23.37 13.862c0 3.816-3.918 6.909-8.752 6.909-1.316 0-2.565-0.229-3.685-0.64-0.851-0.312-5.067 1.101-5.067 1.101s1.387-3.547 0.921-4.281c-0.59-0.93-0.921-1.979-0.921-3.089 0-3.816 3.918-6.909 8.752-6.909s8.752 3.093 8.752 6.909z"></path>
<path d="M25.045 15.418c-0.89 4.090-5.219 7.193-10.426 7.193-0.751 0-1.484-0.065-2.191-0.187 1.435 1.245 3.535 2.030 5.876 2.030 1.288 0 2.503-0.238 3.574-0.659 0.521-0.205 2.261 0.37 3.349 0.77 0.365 0.134 0.742-0.211 0.642-0.587-0.28-1.051-0.649-2.663-0.404-3.085 0.431-0.742 0.67-1.563 0.67-2.427 0-1.113-0.397-2.155-1.089-3.048z"></path>
</symbol>

<symbol id="content-5" viewBox="0 0 32 32">
<path d="M24.993 10.39c-0.542-0.964-1.13-1.141-2.327-1.209-1.196-0.081-4.204-0.115-6.809-0.115-2.611 0-5.619 0.034-6.814 0.114-1.195 0.069-1.784 0.245-2.331 1.21-0.558 0.963-0.845 2.621-0.845 5.54 0 0.002 0 0.004 0 0.004 0 0.002 0 0.004 0 0.004v0.002c0 2.906 0.287 4.577 0.845 5.53 0.547 0.964 1.135 1.139 2.33 1.22 1.196 0.070 4.205 0.111 6.816 0.111 2.606 0 5.613-0.041 6.81-0.11 1.197-0.081 1.785-0.256 2.327-1.22 0.563-0.953 0.848-2.623 0.848-5.53 0 0 0-0.004 0-0.006 0 0 0-0.002 0-0.004 0-2.92-0.285-4.578-0.849-5.541zM13.358 19.679v-7.491l6.242 3.745-6.242 3.745z"></path>
</symbol>

<symbol id="customize-1" viewBox="0 0 32 32"><path d="M18.524 2.403l.233 1.197a2.368 2.368 0 003.418 1.646l1.081-.564c2.306-1.202 4.582 1.653 2.897 3.633l-.79.929a2.367 2.367 0 00.844 3.698l1.115.494c2.377 1.053 1.565 4.613-1.034 4.53l-1.218-.039a2.367 2.367 0 00-2.365 2.966l.309 1.179c.659 2.515-2.631 4.099-4.187 2.016l-.729-.977a2.367 2.367 0 00-3.793 0l-.729.977c-1.556 2.083-4.845.499-4.187-2.016l.309-1.179a2.368 2.368 0 00-2.365-2.966l-1.219.039c-2.599.083-3.411-3.477-1.034-4.53l1.115-.494a2.367 2.367 0 00.844-3.698l-.79-.929c-1.685-1.98.592-4.835 2.897-3.633l1.081.564A2.368 2.368 0 0013.645 3.6l.233-1.197c.498-2.552 4.149-2.552 4.647 0zm-2.323 14.475a3.598 3.598 0 100-7.196 3.598 3.598 0 000 7.196z"/></symbol>

<symbol id="calendar" viewBox="0 0 32 32">
<path fill="#fff" style="fill: var(--color1, #fff)" d="M11.2 1.6c0-0.884-0.716-1.6-1.6-1.6s-1.6 0.716-1.6 1.6v0 1.6h-1.6c-3.535 0-6.4 2.865-6.4 6.4v0 16c0 3.535 2.865 6.4 6.4 6.4v0h19.2c3.535 0 6.4-2.865 6.4-6.4v0-16c0-3.535-2.865-6.4-6.4-6.4v0h-1.6v-1.6c0-0.884-0.716-1.6-1.6-1.6s-1.6 0.716-1.6 1.6v0 1.6h-9.6v-1.6zM3.2 12.8h25.6v12.8c0 1.767-1.433 3.2-3.2 3.2v0h-19.2c-1.767 0-3.2-1.433-3.2-3.2v0-12.8zM10.4 18.4c0 0.884-0.716 1.6-1.6 1.6s-1.6-0.716-1.6-1.6v0c0-0.884 0.716-1.6 1.6-1.6s1.6 0.716 1.6 1.6v0zM16 20c0.884 0 1.6-0.716 1.6-1.6s-0.716-1.6-1.6-1.6v0c-0.884 0-1.6 0.716-1.6 1.6s0.716 1.6 1.6 1.6v0zM24.8 18.4c0 0.884-0.716 1.6-1.6 1.6s-1.6-0.716-1.6-1.6v0c0-0.884 0.716-1.6 1.6-1.6s1.6 0.716 1.6 1.6v0zM8.8 25.6c0.884 0 1.6-0.716 1.6-1.6s-0.716-1.6-1.6-1.6v0c-0.884 0-1.6 0.716-1.6 1.6s0.716 1.6 1.6 1.6v0zM17.6 24c0 0.884-0.716 1.6-1.6 1.6s-1.6-0.716-1.6-1.6v0c0-0.884 0.716-1.6 1.6-1.6s1.6 0.716 1.6 1.6v0zM23.2 25.6c0.884 0 1.6-0.716 1.6-1.6s-0.716-1.6-1.6-1.6v0c-0.884 0-1.6 0.716-1.6 1.6s0.716 1.6 1.6 1.6v0z"></path>
</symbol>

<symbol id="document-7" viewBox="0 0 24 32"><path d="M10.992 1.321v5.384a3.535 3.535 0 003.535 3.535h5.384a.71.71 0 01.711.711v11.601a2.439 2.439 0 01-2.438 2.438H5.994a2.438 2.438 0 01-2.438-2.438V3.047A2.438 2.438 0 015.994.609h4.287a.71.71 0 01.711.711zm-1.951 12.82a1.097 1.097 0 100 2.194h3.048a1.097 1.097 0 100-2.194H9.041zm0 4.267a1.097 1.097 0 100 2.194h6.095a1.097 1.097 0 100-2.194H9.041z"/><path d="M17.808 8.046a.711.711 0 00.503-1.214L14.4 2.921a.711.711 0 00-1.214.503v3.281c0 .741.6 1.341 1.341 1.341h3.281z"/></symbol>

<symbol id="feature-left" viewBox="0 0 136 32"><path fill="var(--color1, #47b983)" d="M5.983 28.522c1.53-.696 3.061-1.252 4.452-2.087.974-.557 1.391-1.948.696-2.922-.278-.417-.696-.835-1.252-.974h-.417c.557-.557 1.113-1.252 1.809-1.809 1.391-1.252 2.643-2.643 4.035-3.896.417.557.835 1.113 1.113 1.53 1.53 1.948 3.061 3.896 4.452 5.843 1.67 2.226 3.339 4.452 5.426 6.4.557.557 1.113.835 1.948.835.696 0 1.391-.278 1.948-.835s.835-1.252.835-1.948c0-.417-.139-.974-.417-1.391s-.557-.696-.974-.974c-.139 0-.139-.139-.278-.139-.974-.835-1.809-1.67-2.783-2.643l-1.252-1.252c-.278-.417-.696-.696-.974-1.113-1.809-2.087-3.478-4.035-5.287-6.122-.278-.417-.696-.835-.974-1.252 2.922-2.783 5.704-5.565 8.626-8.348a2.435 2.435 0 000-3.478c-.417-.417-1.113-.696-1.67-.696-.696 0-1.252.278-1.809.696l-8.348 7.93c-.278-.278-.417-.557-.696-.835-.696-.835-1.252-1.67-1.948-2.365-.417-.557-.974-1.252-1.391-1.809-.696-.835-1.391-1.53-2.087-2.365-.278-.417-.835-.557-1.391-.557-.278 0-.696.139-.974.278-.696.417-1.113 1.391-.835 2.087l.835 2.087c.278.557.835.835 1.391.974 1.391 1.809 2.643 3.617 4.035 5.426l-.278.278-4.174 4.174-2.504 2.504c-.834.834-1.53 1.67-2.365 2.643-.835.974-1.53 1.948-2.226 2.922-.278.417-.278.696-.278 1.252s.278 1.252.696 1.67c.278.278.557.557.835.696s.417.278.696.278c.278 0 .557.139.835.139 1.391 0 2.226-.557 2.922-.835zM82.783 15.304s-.139 0 0 0c-5.287.557-10.574 1.391-15.722 2.087-4.73.696-9.322 1.53-14.052 2.226-2.365.417-4.73.696-7.096 1.113-.557.139-.974.557-1.252.974-.278.557-.417 1.113-.278 1.67s.557.974.974 1.252c.557.278 1.113.278 1.67.278 10.852-1.67 21.704-3.478 32.557-5.009.974-.139 2.087-.278 3.061-.417.557 0 1.113-.139 1.53-.696.417-.417.696-.974.696-1.53s-.278-1.113-.696-1.53c-.278-.139-.835-.417-1.391-.417zm-3.201 4.731H80c0-.139-.139-.139-.418 0zM107.13 19.339c-.835.696-1.67 1.252-2.504 1.948-.835.557-1.67 1.113-2.365 1.809-.557.417-1.113.974-1.67 1.391-.278.278-.417.417-.557.696-.278.278-.417.557-.696.835-.278.417-.417 1.252-.278 1.809s.557.974.974 1.391c.417.278.696.278 1.113.417.139 0 .417 0 .557.139.417 0 .696-.139 1.113-.278.557-.278.835-.696.974-1.252 0-.139 0-.278.139-.417s.278-.139.278-.278c1.113-.835 2.226-1.53 3.339-2.365.974-.696 2.087-1.53 3.061-2.226 1.113-.835 2.226-1.53 3.339-2.365.835-.696 1.809-1.252 2.643-1.948.417.417.835.696 1.391 1.113 4.174 3.339 8.487 6.539 12.661 9.878.139.139.417.278.557.417.417.278.835.417 1.391.417.696 0 1.391-.278 1.948-.835.974-.974 1.113-2.783 0-3.757-3.896-3.617-8.07-6.957-12.243-10.296-.139-.139-.417-.278-.557-.417 1.809-1.391 3.757-2.643 5.565-4.035.557-.417.974-.835 1.113-1.391.139-.696.139-1.252-.278-1.809a2.209 2.209 0 00-1.391-1.113c-.139 0-.417-.139-.696-.139-.417 0-.835.139-1.252.278-2.365 1.67-4.591 3.339-6.957 5.009-3.339-2.783-6.678-5.426-10.017-8.209-.139-.139-.417-.278-.557-.417-.417-.278-.974-.417-1.53-.417-.835 0-1.53.278-2.087.835s-.835 1.391-.835 2.087c0 .696.278 1.67.835 2.087 3.061 2.504 6.261 5.148 9.322 7.652l-1.67 1.252c-1.53.696-2.922 1.67-4.174 2.504z"/></symbol>

<symbol id="feature-right" viewBox="0 0 145 32"><path fill="var(--color1, #47b983)" d="M3.467 20.533c-.4.4-.8.8-1.2 1.333-.4.4-.667.933-1.067 1.467-.267.533-.533 1.067-.667 1.6a1.14 1.14 0 000 .933c.133.4.4.8.8 1.067.8.533 2 .267 2.533-.667.267-.4.4-.8.667-1.2 1.067-1.2 2.133-2.4 3.333-3.467l.933-.933c.267.4.533.933.8 1.333.4.667.933 1.333 1.467 2 .533.8 1.2 1.6 1.867 2.267l.8.8c.267.267.533.533.8.667.933.8 1.867 1.467 2.8 2.267.4.267 1.067.4 1.6.267s.933-.533 1.333-.933c.267-.533.4-1.067.267-1.6s-.533-.933-.933-1.333c-.267-.133-.4-.267-.667-.4-.4-.4-.933-.8-1.333-1.067-.533-.4-.933-.933-1.467-1.467-.267-.267-.4-.533-.667-.667-.267-.267-.4-.533-.667-.8-.533-.533-.933-1.2-1.467-1.733l-1.6-2s0-.133-.133-.133c.667-.533 1.2-1.067 1.867-1.6 1.333-1.2 2.667-2.267 4-3.333.267.133.667.267 1.067.267s.933-.133 1.333-.533c.533-.667.933-1.333 1.467-2 .4-.533.267-1.333 0-1.867s-.933-.933-1.6-.933H19.2c-.4.133-.8.133-1.2.267-.533.133-1.067.533-1.6.8-.933.533-1.733 1.2-2.533 1.867-.667.533-1.467 1.2-2.133 1.733s-1.333 1.2-2.133 1.733l-.4.4c-.4-.533-.667-1.067-1.067-1.6-.267-.4-.533-.8-.8-1.067l-1.2-1.6c-.267-.267-.4-.533-.667-.8s-.533-.4-.8-.533-.533-.267-.8-.267c-.4 0-.933.133-1.2.533-.533.533-.533 1.333-.267 2 .267.533.533 1.067.8 1.467.133.4.533.533.933.667.4.533.667 1.067 1.067 1.6l1.2 2s0 .133.133.133c-.667.533-1.2 1.067-1.867 1.6a9.8 9.8 0 01-1.2 1.467zM97.333 12.133c-.4-.267-.8-.267-1.2-.267-.533 0-1.067-.133-1.6-.133-1.067 0-2.133.133-3.2.267l-3.6.4-8 .8c-5.2.533-10.4 1.2-15.6 1.867-.267 0-.667.133-.933.133-3.333.4-6.8.8-10.133 1.467-1.733.267-3.333.667-4.933 1.333-.8.267-1.733.667-2.533.933-.8.4-1.6.667-2.267 1.2-.933.667-1.467 1.867-.8 2.933.533.933 2 1.467 2.933.8.667-.4 1.2-.667 1.867-.933 1.733-.667 3.333-1.2 5.2-1.6s3.733-.667 5.6-.933 7.333-.933 11.067-1.333c2.4-.267 4.933-.533 7.333-.8 2.533-.267 5.067-.533 7.6-.667 2.533-.267 5.067-.4 7.733-.533a22.854 22.854 0 014.267 0c.667 0 1.333-.267 1.733-.667s.667-1.067.667-1.733c0-.667-.267-1.2-.667-1.733-.267-.533-.4-.667-.533-.8zM136.133 10.4c.667-.533 1.2-1.2 1.733-1.733s.667-1.467.267-2.133c-.267-.533-.933-.8-1.467-.8-.267 0-.533.133-.8.267l-2 1.2c-.8.533-1.467 1.2-2.267 1.733-.667.533-1.2 1.067-1.867 1.6-1.6-2-3.067-4-4.667-6-.8-.933-1.467-2-2.267-2.933-.133-.267-.4-.4-.533-.667-.4-.4-.933-.667-1.467-.8-.267-.133-.533-.133-.8-.133-.533 0-1.2.133-1.6.4-.667.4-1.333 1.2-1.467 2-.267.8-.133 1.867.267 2.533 2.267 2.933 4.533 6 6.8 8.933.267.4.533.8.8 1.067-.933.8-1.867 1.6-2.667 2.533l-1.333 1.333c-.267.267-.533.533-.667.8-.667.667-1.2 1.467-1.733 2.4s-.267 2.267.667 2.8c.933.533 2.133.267 2.8-.667.267-.267.4-.667.667-.933.4-.533.933-1.067 1.333-1.6.4-.4.667-.8 1.067-1.067l2.4-2.4c.4.533.8 1.067 1.333 1.467 3.2 3.867 6.4 7.6 9.733 11.333 1.333 1.467 3.6 1.333 4.933 0s1.333-3.6 0-4.933c-3.067-3.333-6.133-6.667-9.067-10.133-.667-.8-1.333-1.6-2.133-2.4.933-.8 1.733-1.6 2.667-2.4.4-.133.933-.267 1.333-.667z"/></symbol>

<symbol id="interactiv-6" viewBox="0 0 32 32"><path d="M5.159 26.435c1.265 0 2.764-.939 4.585-2.872 1.06-1.128 2.574-1.774 4.061-1.774h4.393c1.487 0 3 .647 4.061 1.774 1.82 1.933 3.319 2.872 4.585 2.872.833 0 1.512-.478 1.909-1.345.298-.65.467-1.531.467-2.617 0-4.49-2.905-13.127-7.352-13.127-1.343 0-1.97.428-2.524.806-.433.296-.856.572-1.662.719.35-.55.644-1.21.644-1.912 0-1.659-1.627-3.131-1.812-3.292-.334-.294-1.286-1.368-1.286-2.181s.952-1.835 1.286-2.129A.775.775 0 0015.493.192c-.186.163-1.814 1.635-1.814 3.294s1.628 3.183 1.812 3.344c.334.294 1.286 1.317 1.286 2.129 0 .685-.675 1.515-1.087 1.936h-1.199c-.962-.151-1.384-.439-1.83-.743-.554-.377-1.181-.806-2.524-.806-4.447 0-7.352 8.637-7.352 13.127 0 3.576 1.667 3.962 2.376 3.962zm17.037-7.796a.774.774 0 110-1.548.774.774 0 010 1.548zm1.549-3.098a.774.774 0 110 1.548.774.774 0 010-1.548zm-1.549-1.549a.774.774 0 110 1.548.774.774 0 010-1.548zm-1.549 1.549a.774.774 0 110 1.548.774.774 0 010-1.548zm-6.195 0h3.098a.773.773 0 110 1.548h-3.098a.773.773 0 110-1.548zm-6.196 0h.774v-.774a.773.773 0 111.548 0v.774h.774a.773.773 0 110 1.548h-.774v.774a.773.773 0 11-1.548 0v-.774h-.774a.773.773 0 110-1.548z"/></symbol>

<symbol id="logo" viewBox="0 0 95 32">
<path fill="#fff" style="fill: var(--color1, #fff)" d="M-12.843-16.839h113.496v31.014h-113.496v-31.014z"></path><path fill="#fff" style="fill: var(--color1, #fff)" d="M-12.843 14.175h113.496v31.014h-113.496v-31.014z"></path>
</symbol>

<symbol id="arrow" viewBox="0 0 52 32">
<path fill="none" stroke="#fff" style="stroke: var(--color1, #fff)" stroke-linejoin="round" stroke-linecap="round" stroke-miterlimit="4" stroke-width="5.8182" d="M36.364 2.909l13.091 13.091M49.455 16l-13.091 13.091M49.455 16h-46.545"></path>
</symbol>

<symbol id="network-8" viewBox="0 0 33 32"><path d="M19.021 2.326a2.326 2.326 0 11-4.652 0 2.326 2.326 0 014.652 0zm-2.325 3.876A3.878 3.878 0 0020.47 3.18a3.102 3.102 0 012.427 3.022v3.101c0 .855-.696 1.55-1.55 1.55s-1.55-.696-1.55-1.55v-1.55h-6.202v1.55c0 .855-.696 1.55-1.55 1.55s-1.55-.696-1.55-1.55V6.202a3.102 3.102 0 012.427-3.022 3.877 3.877 0 003.774 3.022zm12.015 12.744a2.326 2.326 0 00-2.326 4.028c1.112.642 2.586.261 3.228-.851s.209-2.535-.903-3.177zm-4.104-6.845l2.685 1.55a3.103 3.103 0 011.404 3.613c-1.691-.525-3.583.161-4.505 1.757s-.569 3.578.73 4.78a3.103 3.103 0 01-3.831.591l-2.685-1.55c-.74-.427-.995-1.378-.567-2.118s1.378-.995 2.118-.567l1.343.775 3.101-5.371-1.343-.775a1.552 1.552 0 011.551-2.686zm-16.75 7.696c-.642-1.112-2.065-1.493-3.177-.851s-1.545 2.064-.903 3.177c.642 1.112 2.116 1.493 3.228.851s1.494-2.065.851-3.177zm5.579.36c.74-.427 1.691-.173 2.118.567s.173 1.691-.568 2.118l-2.685 1.55a3.102 3.102 0 01-3.831-.591c1.3-1.202 1.652-3.184.73-4.78s-2.814-2.282-4.505-1.757a3.1 3.1 0 011.404-3.613l2.685-1.55c.74-.427 1.691-.173 2.118.568s.173 1.691-.568 2.118l-1.343.775 3.101 5.371 1.343-.775z"/></symbol>

<symbol id="reaction-9" viewBox="0 0 32 32"><path d="M16 0C9.113 0 3.478 5.635 3.478 12.522S9.113 25.044 16 25.044c6.887 0 12.522-5.635 12.522-12.522S22.887 0 16 0zm4.383 7.513c1.002 0 1.878.877 1.878 1.878s-.877 1.878-1.878 1.878c-1.002 0-1.878-.877-1.878-1.878s.877-1.878 1.878-1.878zm-8.766 0c1.002 0 1.878.877 1.878 1.878s-.877 1.878-1.878 1.878c-1.002 0-1.878-.877-1.878-1.878s.877-1.878 1.878-1.878zM16 20.035c-2.555 0-4.801-1.311-6.133-3.266-.539-.791.121-1.742 1.078-1.742h10.11c.957 0 1.617.951 1.078 1.742-1.333 1.956-3.579 3.266-6.134 3.266z"/></symbol>

<symbol id="tribune-4" viewBox="0 0 28 32"><path d="M18.556 3.181a2.335 2.335 0 01-2.171 1.483c-1.286 0-2.332-1.046-2.332-2.332S15.099 0 16.385 0c1.051 0 1.942.699 2.232 1.657a3.132 3.132 0 012.485 3.061v1.643h-1.484V4.718c0-.701-.442-1.301-1.061-1.536zM4.09 7.844h19.821c.493 0 .849.472.714.946l-1.166 4.08a.741.741 0 01-.714.538h-1.748v-1.643c0-1.23-.997-2.227-2.227-2.227H9.23c-1.23 0-2.227.997-2.227 2.227v1.643H5.255a.743.743 0 01-.714-.538L3.375 8.79a.743.743 0 01.714-.946zm5.14 3.18h9.54c.41 0 .742.332.742.742v10.598H8.488V11.766c0-.41.332-.742.742-.742zm11.925 12.825H6.846a.742.742 0 100 1.484h14.309a.742.742 0 100-1.484z"/></symbol>

<symbol id="use-cases-draft" viewBox="0 0 34 32"><path fill="var(--color3, #fbcc43)" d="M4.832 25.529c.305.914.74 1.697 1.305 2.437s1.305 1.392 2.045 1.871c.435.261.914.566 1.436.653.435.087.827.131 1.262.044.305-.044.653-.218.914-.479.305-.218.522-.609.74-.914.479-.74.609-1.567.696-2.437.087-.783 0-1.567-.131-2.306-.087-.435-.218-.827-.348-1.218-.174-.522-.435-.957-.696-1.392a8.244 8.244 0 00-2.002-2.263c-.783-.609-1.697-1.001-2.698-1.305-.74-.218-1.567-.261-2.306-.044-.609.174-1.131.522-1.697.827s-1.088.74-1.61 1.175c-.174.174-.218.392-.131.653.087.522.479 1.001.827 1.349.261.261.566.479.914.653.261.087.566.218.827.131v.087c.174.957.392 1.697.653 2.48zm1.61-2.306c0-.435.043-.827.131-1.262 0-.087.043-.218.043-.305.174-.087.435-.174.609-.261.261-.087.566-.131.827-.131.305.044.609.087.87.174.131.044.305.131.479.218l.087.087.131.131c.044.044.131.218.174.261.174.261.261.522.348.783.131.566.261 1.131.261 1.741 0 .783-.131 1.61-.435 2.35-.218.392-.479.74-.827 1.001-.174.087-.348.087-.522.087-.087 0-.131-.044-.218-.044-.043-.044-.131-.044-.174-.087-.087-.087-.218-.131-.305-.218l-.261-.261c-.131-.131-.174-.261-.305-.392a7.284 7.284 0 01-.522-1.218c-.174-.87-.348-1.741-.392-2.654zM19.409 15.826c-.044.392.044.74.218 1.088.305.653.87 1.305 1.48 1.741.566.392 1.958 1.088 2.263 0 .261-.957.522-1.915.827-2.915s.566-2.045.827-3.089c.783.087 1.523.131 2.306.218 1.436.131 2.872.261 4.308.479.348.087.653.044.914-.218.435-.435.174-1.131 0-1.567-.218-.479-.566-.914-.957-1.305-.218-.218-.435-.348-.653-.566-.392-.305-.827-.479-1.305-.609a92.12 92.12 0 00-3.612-.305c.305-1.001.609-2.089.914-3.089.087-.435-.044-.827-.218-1.262-.348-.783-1.001-1.523-1.741-2.002-.566-.392-1.784-1.001-2.35-.435-.087.087-.174.261-.261.435a76.121 76.121 0 00-1.175 4.221c-.174.609-.348 1.218-.479 1.784-.566-.044-1.175-.044-1.784-.044.131.043.261 0 .392.043-1.044 0-2.132-.043-3.133.087a7.333 7.333 0 00-3.09 1.088c-.174.261-.261.522-.174.87.087.696.609 1.305 1.088 1.784.348.348.74.653 1.218.87.174.087.392.131.566.218.348.087.609 0 .87-.174l.087-.087a9.31 9.31 0 011.871-.566l1.175-.131c-.044.043 0 .087-.044.131-.131 1.088-.348 2.176-.348 3.307z"/></symbol>

<symbol id="volume-2" viewBox="0 0 47 42" fill="none" xmlns="http://www.w3.org/2000/svg">
<g filter="url(#filter0_dii)">
<path d="M5.80005 11.0005C5.80005 9.89593 6.69548 9.0005 7.80005 9.0005H13.8485C14.3026 9.0005 14.7433 8.84594 15.0979 8.56224L20.0507 4.60001C21.3602 3.55239 23.3 4.48473 23.3 6.16175V25.8392C23.3 27.5163 21.3602 28.4486 20.0507 27.401L15.0979 23.4388C14.7433 23.1551 14.3026 23.0005 13.8485 23.0005H7.80005C6.69548 23.0005 5.80005 22.1051 5.80005 21.0005V11.0005Z" fill="url(#paint0_linear)"/>
</g>
<g filter="url(#filter1_dii)">
<path d="M28.55 9C28.55 9 31.175 11.625 31.175 16C31.175 20.375 28.55 23 28.55 23" stroke="url(#paint1_linear)" stroke-width="4" stroke-linecap="round" stroke-linejoin="round"/>
</g>
<g filter="url(#filter2_dii)">
<path d="M33.8 2C33.8 2 39.4 7.25 39.4 16C39.4 24.75 33.8 30 33.8 30" stroke="url(#paint2_linear)" stroke-width="4" stroke-linecap="round" stroke-linejoin="round"/>
</g>
</symbol>
<defs>
<filter id="filter0_dii" x="0.966969" y="2.94972" width="27.1661" height="34.5595" filterUnits="userSpaceOnUse" color-interpolation-filters="sRGB">
<feFlood flood-opacity="0" result="BackgroundImageFix"/>
<feColorMatrix in="SourceAlpha" type="matrix" values="0 0 0 0 0 0 0 0 0 0 0 0 0 0 0 0 0 0 127 0"/>
<feOffset dy="4.83308"/>
<feGaussianBlur stdDeviation="2.41654"/>
<feColorMatrix type="matrix" values="0 0 0 0 0.321569 0 0 0 0 0.14902 0 0 0 0 0.815686 0 0 0 1 0"/>
<feBlend mode="normal" in2="BackgroundImageFix" result="effect1_dropShadow"/>
<feBlend mode="normal" in="SourceGraphic" in2="effect1_dropShadow" result="shape"/>
<feColorMatrix in="SourceAlpha" type="matrix" values="0 0 0 0 0 0 0 0 0 0 0 0 0 0 0 0 0 0 127 0" result="hardAlpha"/>
<feOffset dy="1.20827"/>
<feGaussianBlur stdDeviation="0.604136"/>
<feComposite in2="hardAlpha" operator="arithmetic" k2="-1" k3="1"/>
<feColorMatrix type="matrix" values="0 0 0 0 1 0 0 0 0 1 0 0 0 0 1 0 0 0 0.25 0"/>
<feBlend mode="normal" in2="shape" result="effect2_innerShadow"/>
<feColorMatrix in="SourceAlpha" type="matrix" values="0 0 0 0 0 0 0 0 0 0 0 0 0 0 0 0 0 0 127 0" result="hardAlpha"/>
<feOffset dy="-1.20827"/>
<feGaussianBlur stdDeviation="0.604136"/>
<feComposite in2="hardAlpha" operator="arithmetic" k2="-1" k3="1"/>
<feColorMatrix type="matrix" values="0 0 0 0 0.800781 0 0 0 0 0.800781 0 0 0 0 0.9375 0 0 0 1 0"/>
<feBlend mode="normal" in2="effect2_innerShadow" result="effect3_innerShadow"/>
</filter>
<filter id="filter1_dii" x="21.7169" y="5.79173" width="16.2912" height="28.8744" filterUnits="userSpaceOnUse" color-interpolation-filters="sRGB">
<feFlood flood-opacity="0" result="BackgroundImageFix"/>
<feColorMatrix in="SourceAlpha" type="matrix" values="0 0 0 0 0 0 0 0 0 0 0 0 0 0 0 0 0 0 127 0"/>
<feOffset dy="4.83308"/>
<feGaussianBlur stdDeviation="2.41654"/>
<feColorMatrix type="matrix" values="0 0 0 0 0.321569 0 0 0 0 0.14902 0 0 0 0 0.815686 0 0 0 1 0"/>
<feBlend mode="normal" in2="BackgroundImageFix" result="effect1_dropShadow"/>
<feBlend mode="normal" in="SourceGraphic" in2="effect1_dropShadow" result="shape"/>
<feColorMatrix in="SourceAlpha" type="matrix" values="0 0 0 0 0 0 0 0 0 0 0 0 0 0 0 0 0 0 127 0" result="hardAlpha"/>
<feOffset dy="1.20827"/>
<feGaussianBlur stdDeviation="0.604136"/>
<feComposite in2="hardAlpha" operator="arithmetic" k2="-1" k3="1"/>
<feColorMatrix type="matrix" values="0 0 0 0 1 0 0 0 0 1 0 0 0 0 1 0 0 0 0.25 0"/>
<feBlend mode="normal" in2="shape" result="effect2_innerShadow"/>
<feColorMatrix in="SourceAlpha" type="matrix" values="0 0 0 0 0 0 0 0 0 0 0 0 0 0 0 0 0 0 127 0" result="hardAlpha"/>
<feOffset dy="-1.20827"/>
<feGaussianBlur stdDeviation="0.604136"/>
<feComposite in2="hardAlpha" operator="arithmetic" k2="-1" k3="1"/>
<feColorMatrix type="matrix" values="0 0 0 0 0.800781 0 0 0 0 0.800781 0 0 0 0 0.9375 0 0 0 1 0"/>
<feBlend mode="normal" in2="effect2_innerShadow" result="effect3_innerShadow"/>
</filter>
<filter id="filter2_dii" x="26.9669" y="-1.20827" width="19.2662" height="42.8744" filterUnits="userSpaceOnUse" color-interpolation-filters="sRGB">
<feFlood flood-opacity="0" result="BackgroundImageFix"/>
<feColorMatrix in="SourceAlpha" type="matrix" values="0 0 0 0 0 0 0 0 0 0 0 0 0 0 0 0 0 0 127 0"/>
<feOffset dy="4.83308"/>
<feGaussianBlur stdDeviation="2.41654"/>
<feColorMatrix type="matrix" values="0 0 0 0 0.321569 0 0 0 0 0.14902 0 0 0 0 0.815686 0 0 0 1 0"/>
<feBlend mode="normal" in2="BackgroundImageFix" result="effect1_dropShadow"/>
<feBlend mode="normal" in="SourceGraphic" in2="effect1_dropShadow" result="shape"/>
<feColorMatrix in="SourceAlpha" type="matrix" values="0 0 0 0 0 0 0 0 0 0 0 0 0 0 0 0 0 0 127 0" result="hardAlpha"/>
<feOffset dy="1.20827"/>
<feGaussianBlur stdDeviation="0.604136"/>
<feComposite in2="hardAlpha" operator="arithmetic" k2="-1" k3="1"/>
<feColorMatrix type="matrix" values="0 0 0 0 1 0 0 0 0 1 0 0 0 0 1 0 0 0 0.25 0"/>
<feBlend mode="normal" in2="shape" result="effect2_innerShadow"/>
<feColorMatrix in="SourceAlpha" type="matrix" values="0 0 0 0 0 0 0 0 0 0 0 0 0 0 0 0 0 0 127 0" result="hardAlpha"/>
<feOffset dy="-1.20827"/>
<feGaussianBlur stdDeviation="0.604136"/>
<feComposite in2="hardAlpha" operator="arithmetic" k2="-1" k3="1"/>
<feColorMatrix type="matrix" values="0 0 0 0 0.800781 0 0 0 0 0.800781 0 0 0 0 0.9375 0 0 0 1 0"/>
<feBlend mode="normal" in2="effect2_innerShadow" result="effect3_innerShadow"/>
</filter>
<linearGradient id="paint0_linear" x1="14.55" y1="2.0005" x2="14.55" y2="28.1583" gradientUnits="userSpaceOnUse">
<stop stop-color="white"/>
<stop offset="1" stop-color="#E0E0FB"/>
</linearGradient>
<linearGradient id="paint1_linear" x1="29.8625" y1="9" x2="29.8625" y2="22.0789" gradientUnits="userSpaceOnUse">
<stop stop-color="white"/>
<stop offset="1" stop-color="#E0E0FB"/>
</linearGradient>
<linearGradient id="paint2_linear" x1="36.6" y1="2" x2="36.6" y2="28.1579" gradientUnits="userSpaceOnUse">
<stop stop-color="white"/>
<stop offset="1" stop-color="#E0E0FB"/>
</linearGradient>
</defs>
</defs>
</svg>