<svg width="110" height="37" viewBox="0 0 110 37" fill="none" xmlns="http://www.w3.org/2000/svg">
<mask id="mask0" mask-type="alpha" maskUnits="userSpaceOnUse" x="0" y="0" width="110" height="37">
<path d="M93.6437 15.3429C92.3232 15.3429 91.2521 14.2718 91.2521 12.9513C91.2521 11.6299 92.3232 10.5597 93.6437 10.5597C94.9642 10.5597 96.0353 11.6299 96.0353 12.9513C96.0336 14.271 94.9642 15.3412 93.6437 15.3429ZM93.6437 10.9222C92.8229 10.9222 92.0833 11.4168 91.7691 12.1745C91.4549 12.9332 91.6284 13.8058 92.2093 14.3866C92.7893 14.9666 93.6627 15.1401 94.4205 14.8259C95.1791 14.5118 95.6728 13.7721 95.6728 12.9513C95.6719 11.831 94.764 10.9231 93.6437 10.9222Z" fill="white"/>
<path d="M95.5554 14.2416L91.7294 14.2373L91.5723 13.9654L93.4866 10.6504H93.8008L95.7125 13.9697L95.5554 14.2416ZM92.0427 13.8757L95.2421 13.8791L93.6437 11.1035L92.0427 13.8757Z" fill="white"/>
<path d="M92.7418 12.2747V14.0604H94.5275V12.2747H92.7418ZM93.6342 13.8127C93.2786 13.8127 92.9903 13.5244 92.9903 13.1679C92.9903 12.8124 93.2786 12.5232 93.6342 12.5232C93.9907 12.5232 94.2789 12.8124 94.2789 13.1679C94.2789 13.5244 93.9907 13.8127 93.6342 13.8127Z" fill="white"/>
<path d="M11.371 0C12.7232 0 13.9027 0.230154 14.9096 0.690461C15.9166 1.15077 16.6861 1.7765 17.2184 2.56765C17.7506 3.3588 18.0167 4.24346 18.0167 5.22161C18.0167 6.83268 17.5132 8.09853 16.5063 9.01914C15.4994 9.92537 13.7876 10.3785 11.371 10.3785H8.52287V14.5213C8.52287 14.6795 8.46533 14.8161 8.35026 14.9312C8.23518 15.0463 8.09853 15.1038 7.9403 15.1038H3.30126C3.14303 15.1038 3.00638 15.0463 2.8913 14.9312C2.77623 14.8161 2.71869 14.6795 2.71869 14.5213V0.582576C2.71869 0.424346 2.77623 0.287693 2.8913 0.172616C3.00638 0.0575386 3.14303 0 3.30126 0H11.371ZM11.2847 6.38676C11.6299 6.38676 11.9033 6.28607 12.1046 6.08468C12.306 5.86892 12.4067 5.58842 12.4067 5.24319C12.4067 4.88357 12.306 4.58869 12.1046 4.35853C11.9033 4.12838 11.6299 4.0133 11.2847 4.0133H8.54445V6.38676H11.2847Z" fill="white"/>
<path d="M24.395 14.3702C24.208 14.8593 23.8844 15.1038 23.4241 15.1038H19.346C19.2166 15.1038 19.1015 15.0607 19.0008 14.9744C18.9145 14.8737 18.8714 14.7586 18.8714 14.6291L18.8929 14.4997L23.5967 0.712037C23.6542 0.525038 23.7621 0.359615 23.9203 0.215769C24.0786 0.0719229 24.2943 0 24.5676 0H30.566C30.8393 0 31.0551 0.0719229 31.2133 0.215769C31.3716 0.359615 31.4795 0.525038 31.537 0.712037L36.2407 14.4997L36.2623 14.6291C36.2623 14.7586 36.212 14.8737 36.1113 14.9744C36.025 15.0607 35.9171 15.1038 35.7876 15.1038H31.7096C31.2493 15.1038 30.9256 14.8593 30.7386 14.3702L30.1992 12.8598H24.9345L24.395 14.3702ZM27.5668 4.16434L26.0349 8.65234H29.0988L27.5668 4.16434Z" fill="white"/>
<path d="M54.4001 14.4349C54.4288 14.4925 54.4432 14.5572 54.4432 14.6291C54.4432 14.7586 54.3929 14.8737 54.2922 14.9744C54.2059 15.0607 54.098 15.1038 53.9685 15.1038H49.0706C48.8692 15.1038 48.6822 15.0535 48.5096 14.9528C48.3513 14.8521 48.2363 14.7226 48.1643 14.5644L46.2656 10.2922H44.4531V14.5213C44.4531 14.6795 44.3956 14.8161 44.2805 14.9312C44.1654 15.0463 44.0288 15.1038 43.8705 15.1038H39.2099C39.0517 15.1038 38.915 15.0463 38.8 14.9312C38.6849 14.8161 38.6274 14.6795 38.6274 14.5213V0.582576C38.6274 0.424346 38.6849 0.287693 38.8 0.172616C38.915 0.0575386 39.0517 0 39.2099 0H47.6033C48.898 0 50.0271 0.208577 50.9909 0.625731C51.9691 1.04288 52.7171 1.64704 53.2349 2.43819C53.7528 3.22934 54.0117 4.15715 54.0117 5.22161C54.0117 7.17791 53.2565 8.5948 51.7461 9.47226L54.4001 14.4349ZM47.1502 6.30045C47.4667 6.30045 47.7112 6.19976 47.8838 5.99838C48.0565 5.78261 48.1428 5.51649 48.1428 5.20003C48.1428 4.88357 48.0565 4.61026 47.8838 4.38011C47.7256 4.13557 47.4811 4.0133 47.1502 4.0133H44.4531V6.30045H47.1502Z" fill="white"/>
<path d="M71.61 0C71.7682 0 71.9049 0.0575386 72.02 0.172616C72.135 0.287693 72.1926 0.424346 72.1926 0.582576V4.05646C72.1926 4.21469 72.135 4.35134 72.02 4.46642C71.9049 4.58149 71.7682 4.63903 71.61 4.63903H66.971V14.5213C66.971 14.6795 66.9134 14.8161 66.7983 14.9312C66.6833 15.0463 66.5466 15.1038 66.3884 15.1038H61.9435C61.7853 15.1038 61.6487 15.0463 61.5336 14.9312C61.4185 14.8161 61.361 14.6795 61.361 14.5213V4.63903H56.7219C56.5637 4.63903 56.4271 4.58149 56.312 4.46642C56.1969 4.35134 56.1394 4.21469 56.1394 4.05646V0.582576C56.1394 0.424346 56.1969 0.287693 56.312 0.172616C56.4271 0.0575386 56.5637 0 56.7219 0H71.61Z" fill="white"/>
<path d="M90.395 0C90.5245 0 90.6324 0.0503462 90.7187 0.151039C90.8194 0.237346 90.8697 0.338038 90.8697 0.453115C90.8697 0.539423 90.8481 0.62573 90.805 0.712037L85.3676 9.7096V14.5213C85.3676 14.6795 85.3101 14.8161 85.195 14.9312C85.0799 15.0463 84.9433 15.1038 84.785 15.1038H80.1892C80.0309 15.1038 79.8943 15.0463 79.7792 14.9312C79.6641 14.8161 79.6066 14.6795 79.6066 14.5213V9.7096L74.1908 0.712037C74.1476 0.62573 74.1261 0.546615 74.1261 0.474692C74.1261 0.345231 74.1692 0.237346 74.2555 0.151039C74.3562 0.0503462 74.4713 0 74.6007 0H79.1535C79.5562 0 79.8511 0.165423 80.0381 0.496269L82.4763 4.76849L84.9792 0.539423C85.195 0.179808 85.4971 0 85.8855 0H90.395Z" fill="white"/>
<path d="M10.3569 26.1943C11.9392 26.367 13.2051 26.6475 14.1544 27.0359C15.1182 27.4242 15.8159 27.9349 16.2474 28.5678C16.6789 29.2007 16.8947 29.9919 16.8947 30.9413C16.8947 31.977 16.5567 32.8832 15.8806 33.66C15.2189 34.4223 14.2983 35.0121 13.1187 35.4293C11.9392 35.832 10.5943 36.0334 9.08387 36.0334C7.40087 36.0334 5.9768 35.8248 4.81165 35.4077C3.64649 34.9905 2.77623 34.4367 2.20084 33.7463C1.62546 33.0414 1.33777 32.2718 1.33777 31.4375C1.33777 31.2937 1.38092 31.1786 1.46723 31.0923C1.56792 31.006 1.69019 30.9628 1.83404 30.9628H6.2573C6.55937 30.9628 6.80391 31.0563 6.99091 31.2433C7.23545 31.4735 7.50876 31.6317 7.81083 31.718C8.11291 31.79 8.53726 31.8259 9.08387 31.8259C10.4504 31.8259 11.1337 31.6173 11.1337 31.2002C11.1337 31.0276 11.0402 30.8837 10.8532 30.7687C10.6806 30.6392 10.3641 30.5313 9.90379 30.445C9.45787 30.3443 8.79618 30.2436 7.91872 30.1429C5.94803 29.9128 4.43765 29.4237 3.38757 28.6757C2.3375 27.9133 1.81246 26.8417 1.81246 25.4607C1.81246 24.4826 2.10734 23.6195 2.69711 22.8715C3.28688 22.1235 4.12119 21.5409 5.20003 21.1238C6.29326 20.7066 7.5591 20.4981 8.99756 20.4981C10.4936 20.4981 11.8026 20.7354 12.9246 21.2101C14.0466 21.6704 14.9024 22.2458 15.4922 22.9362C16.082 23.6267 16.3769 24.3028 16.3769 24.9645C16.3769 25.1083 16.3265 25.2234 16.2258 25.3097C16.1395 25.396 16.0172 25.4392 15.859 25.4392H11.22C10.9754 25.4392 10.7525 25.3528 10.5511 25.1802C10.3929 25.0364 10.2059 24.9213 9.9901 24.835C9.77433 24.7487 9.44349 24.7055 8.99756 24.7055C8.0338 24.7055 7.55191 24.9069 7.55191 25.3097C7.55191 25.5255 7.73891 25.6981 8.11291 25.8275C8.48691 25.9426 9.23491 26.0649 10.3569 26.1943Z" fill="white"/>
<path d="M29.7029 20.7138C31.0551 20.7138 32.2346 20.944 33.2416 21.4043C34.2485 21.8646 35.0181 22.4903 35.5503 23.2815C36.0825 24.0726 36.3486 24.9573 36.3486 25.9354C36.3486 27.5465 35.8452 28.8123 34.8382 29.733C33.8313 30.6392 32.1196 31.0923 29.7029 31.0923H26.8548V35.2351C26.8548 35.3933 26.7973 35.5299 26.6822 35.645C26.5671 35.7601 26.4305 35.8176 26.2722 35.8176H21.6332C21.475 35.8176 21.3383 35.7601 21.2232 35.645C21.1082 35.5299 21.0506 35.3933 21.0506 35.2351V21.2964C21.0506 21.1382 21.1082 21.0015 21.2232 20.8864C21.3383 20.7714 21.475 20.7138 21.6332 20.7138H29.7029ZM29.6166 27.1006C29.9619 27.1006 30.2352 26.9999 30.4366 26.7985C30.6379 26.5827 30.7386 26.3022 30.7386 25.957C30.7386 25.5974 30.6379 25.3025 30.4366 25.0724C30.2352 24.8422 29.9619 24.7271 29.6166 24.7271H26.8764V27.1006H29.6166Z" fill="white"/>
<path d="M42.727 35.084C42.54 35.5731 42.2163 35.8176 41.756 35.8176H37.678C37.5485 35.8176 37.4334 35.7745 37.3327 35.6882C37.2464 35.5875 37.2033 35.4724 37.2033 35.343L37.2249 35.2135L41.9286 21.4259C41.9862 21.2389 42.094 21.0734 42.2523 20.9296C42.4105 20.7857 42.6263 20.7138 42.8996 20.7138H48.898C49.1713 20.7138 49.387 20.7857 49.5453 20.9296C49.7035 21.0734 49.8114 21.2389 49.8689 21.4259L54.5727 35.2135L54.5943 35.343C54.5943 35.4724 54.5439 35.5875 54.4432 35.6882C54.3569 35.7745 54.249 35.8176 54.1196 35.8176H50.0415C49.5812 35.8176 49.2576 35.5731 49.0706 35.084L48.5311 33.5736H43.2664L42.727 35.084ZM45.8988 24.8782L44.3668 29.3661H47.4307L45.8988 24.8782Z" fill="white"/>
<path d="M62.1809 29.9919C62.1809 30.5816 62.3751 31.0348 62.7635 31.3512C63.1662 31.6677 63.7057 31.8259 64.3817 31.8259C64.9859 31.8259 65.4318 31.7252 65.7195 31.5238C66.0072 31.3225 66.2517 31.0204 66.4531 30.6176C66.6401 30.2436 66.8918 30.0566 67.2083 30.0566H71.8689C71.9984 30.0566 72.1063 30.107 72.1926 30.2077C72.2933 30.294 72.3436 30.4018 72.3436 30.5313C72.3436 31.4088 72.0487 32.2718 71.4589 33.1205C70.8692 33.9548 69.9701 34.6525 68.7618 35.2135C67.5679 35.7601 66.1079 36.0334 64.3817 36.0334C62.8426 36.0334 61.4688 35.8033 60.2605 35.343C59.0666 34.8683 58.1172 34.149 57.4124 33.1853C56.7076 32.2071 56.3551 30.9916 56.3551 29.5388V26.9927C56.3551 25.5399 56.7076 24.3315 57.4124 23.3678C58.1172 22.3896 59.0666 21.6704 60.2605 21.2101C61.4688 20.7354 62.8426 20.4981 64.3817 20.4981C66.1079 20.4981 67.5679 20.7785 68.7618 21.3396C69.9701 21.8862 70.8692 22.5838 71.4589 23.4325C72.0487 24.2668 72.3436 25.1227 72.3436 26.0002C72.3436 26.1296 72.2933 26.2447 72.1926 26.3454C72.1063 26.4317 71.9984 26.4748 71.8689 26.4748H67.2083C66.8918 26.4748 66.6401 26.2878 66.4531 25.9138C66.2517 25.5111 66.0072 25.209 65.7195 25.0076C65.4318 24.8062 64.9859 24.7055 64.3817 24.7055C63.7057 24.7055 63.1662 24.8638 62.7635 25.1802C62.3751 25.4967 62.1809 25.9498 62.1809 26.5396V29.9919Z" fill="white"/>
<path d="M89.4888 31.6101C89.647 31.6101 89.7837 31.6677 89.8988 31.7828C90.0138 31.8978 90.0714 32.0345 90.0714 32.1927V35.2351C90.0714 35.3933 90.0138 35.5299 89.8988 35.645C89.7837 35.7601 89.647 35.8176 89.4888 35.8176H75.8522C75.694 35.8176 75.5573 35.7601 75.4422 35.645C75.3272 35.5299 75.2696 35.3933 75.2696 35.2351V21.2964C75.2696 21.1382 75.3272 21.0015 75.4422 20.8864C75.5573 20.7714 75.694 20.7138 75.8522 20.7138H89.273C89.4313 20.7138 89.5679 20.7714 89.683 20.8864C89.7981 21.0015 89.8556 21.1382 89.8556 21.2964V24.3387C89.8556 24.497 89.7981 24.6336 89.683 24.7487C89.5679 24.8638 89.4313 24.9213 89.273 24.9213H80.8796V26.2807H88.0863C88.2445 26.2807 88.3812 26.3382 88.4963 26.4533C88.6113 26.5683 88.6689 26.705 88.6689 26.8632V29.6682C88.6689 29.8265 88.6113 29.9631 88.4963 30.0782C88.3812 30.1933 88.2445 30.2508 88.0863 30.2508H80.8796V31.6101H89.4888Z" fill="white"/>
<path d="M0 17.2615H110V18.3404H0V17.2615Z" fill="white"/>
</mask>
<g mask="url(#mask0)">
<rect x="-14.85" y="-19.4697" width="131.23" height="35.86" fill="white"/>
<rect x="-14.85" y="16.3896" width="131.23" height="35.86" fill="white"/>
</g>
</svg>
